<svg xmlns="http://www.w3.org/2000/svg" version="1.1" xmlns:xlink="http://www.w3.org/1999/xlink" xmlns:svgjs="http://svgjs.dev/svgjs" width="100%" height="100%" viewBox="0 0 1000 600"><rect width="1000" height="600" x="0" y="0" fill="#5474fd"/><g><rect width="333.3333333333333" height="333.3333333333333" y="284.0655275453925" fill="#5474fd" transform="matrix(0.4773847149712555,0,0,0.4773847149712555,0,84.82732953512692)" x="261.84332275390625"/><path d="M381.3144444066777 375.73220487859015L419.8949274458204 375.73220487859015Q442.51305977272625 375.73220487859015 455.4788681129908 384.98114816131215Q468.44467645325534 394.20127853661137 468.44467645325534 413.7076168618538L468.44467645325534 413.7076168618538Q468.44467645325534 425.52090890520594 463.05666276518986 434.2512198543174Q457.63983616970154 442.95271789600605 448.016325090483 447.9373508801522Q438.3640011038416 452.92198386429834 425.28294113388586 453.52705492017736L425.28294113388586 453.52705492017736L422.372837484182 443.1544082479657Q437.52842678858013 443.58660185930785 449.57222209131476 448.571234843454Q461.58720448662655 453.52705492017736 468.64636680521505 462.4590562212485Q475.7055291238035 471.3910575223196 475.7055291238035 483.60773026959106L475.7055291238035 483.60773026959106Q475.7055291238035 494.8159512570642 471.55647045491884 502.79712661318257Q467.4074117860342 510.8071148767238 460.3482494674457 515.8781865831384Q453.2890871488572 520.949258289553 444.3858987552089 523.3407296056462Q435.4538974541378 525.7322009217394 425.91682509718765 525.7322009217394L425.91682509718765 525.7322009217394L381.3144444066777 525.7322009217394L381.3144444066777 375.73220487859015ZM401.4258537877991 441.5120725248656L424.04398611470504 441.5120725248656Q436.49116212135897 441.5120725248656 442.0808661613841 434.56816183596834Q447.6993831088321 427.5954382396483 447.6993831088321 417.6549851787788L447.6993831088321 417.6549851787788Q447.6993831088321 405.81288022800385 440.438530438284 400.42486653993836Q433.1776777677358 395.0368528518729 420.93219211304154 395.0368528518729L420.93219211304154 395.0368528518729L401.4258537877991 395.0368528518729L401.4258537877991 441.5120725248656ZM401.4258537877991 507.06143691175845L424.87956042996655 507.06143691175845Q433.1776777677358 507.06143691175845 440.12158845663305 504.5835268733968Q447.0654991455303 502.07680392761233 451.1281190921465 496.89048059150656Q455.1619261313399 491.70415725540073 455.1619261313399 483.8382335289736L455.1619261313399 483.8382335289736Q455.1619261313399 475.1079225798621 450.49423512884465 470.12328959571596Q445.82654412634946 465.1674695189926 438.5656914558013 462.97768855485907Q431.3048387852532 460.7879075907255 423.64060541078567 460.7879075907255L423.64060541078567 460.7879075907255L401.4258537877991 460.7879075907255L401.4258537877991 507.06143691175845Z " fill="#5474fd" transform="matrix(0.4773847149712555,0,0,0.4773847149712555,0,84.82732953512692)"/><path d="M678.5099895581286 381.53034295667834L714.4530812118264 381.53034295667834Q735.5250206802004 381.53034295667834 747.6044764264021 390.1470213889688Q759.6839321726038 398.73685658626783 759.6839321726038 416.90972667555343L759.6839321726038 416.90972667555343Q759.6839321726038 427.9154530220927 754.6642472291823 436.0489532245352Q749.6177190507691 444.1556101919861 740.6520785635884 448.79948984552584Q731.659594841416 453.44336949906557 719.4727661552481 454.00707743388836L719.4727661552481 454.00707743388836L716.7615994211005 444.343512836927Q730.8811410266608 444.7461613618004 742.1016132531325 449.39004101534016Q753.2952422446127 454.00707743388836 759.8718348175448 462.3284802812717Q766.4484273904768 470.64988312865506 766.4484273904768 482.0314147650762L766.4484273904768 482.0314147650762Q766.4484273904768 492.47343317679275 762.5830015516923 499.90900926945466Q758.7175757129078 507.37142859710815 752.1409831399757 512.0958379556225Q745.5643905670437 516.8202473141371 737.2698309546519 519.0482358184365Q728.9484281072685 521.2762243227359 720.0633173250624 521.2762243227359L720.0633173250624 521.2762243227359L678.5099895581286 521.2762243227359L678.5099895581286 381.53034295667834ZM697.246567582237 442.8134484424081L718.3185070506111 442.8134484424081Q729.9147845669646 442.8134484424081 735.1223721553272 436.3442288094423Q740.3568029786811 429.848165941485 740.3568029786811 420.58724986939706L740.3568029786811 420.58724986939706Q740.3568029786811 409.5546802878662 733.5923077608082 404.5349953444446Q726.8278125429354 399.515310401023 715.4194376715226 399.515310401023L715.4194376715226 399.515310401023L697.246567582237 399.515310401023L697.246567582237 442.8134484424081ZM697.246567582237 503.8818080482054L719.0969608653662 503.8818080482054Q726.8278125429354 503.8818080482054 733.2970321759011 501.5732898389313Q739.7662518088669 499.2379283946657 743.5511479426767 494.406146096185Q747.309200841495 489.5743637977044 747.309200841495 482.2461606450087L747.309200841495 482.2461606450087Q747.309200841495 474.1126604425662 742.9605967728623 469.4687807890265Q738.6119927042298 464.8517443704783 731.8474974863568 462.8116585111198Q725.0830022684839 460.7715726517613 717.9427017607292 460.7715726517613L717.9427017607292 460.7715726517613L697.246567582237 460.7715726517613L697.246567582237 503.8818080482054ZM889.954151586641 381.53034295667834L908.5028269658085 381.53034295667834L908.5028269658085 521.2762243227359L889.954151586641 521.2762243227359L889.954151586641 460.0199620719976L816.6989632946758 460.0199620719976L816.6989632946758 521.2762243227359L797.9355420355757 521.2762243227359L797.9355420355757 381.53034295667834L816.6989632946758 381.53034295667834L816.6989632946758 442.2228972725938L889.954151586641 442.2228972725938L889.954151586641 381.53034295667834ZM948.6871497481727 381.53034295667834L985.8113437414991 381.53034295667834Q996.4412647981567 381.53034295667834 1005.4337485203289 384.34888263079205Q1014.3993890075097 387.1405790699142 1021.083354520408 392.64344224318387Q1027.7404767983148 398.17314865144505 1031.5253729321246 406.17243267892974Q1035.2834258309429 414.19855994140596 1035.2834258309429 424.8284809980634L1035.2834258309429 424.8284809980634Q1035.2834258309429 433.1498838454468 1032.8675346817026 441.06863816795675Q1030.4516435324622 448.9873924904668 1024.8414074192262 455.45661212343254Q1019.2311713059903 461.95267499138987 1010.2655308188096 465.8986305351491Q1001.2730470966374 469.87142931389985 988.1198619507732 469.87142931389985L988.1198619507732 469.87142931389985L967.4505710072726 469.87142931389985L967.4505710072726 521.2762243227359L948.6871497481727 521.2762243227359L948.6871497481727 381.53034295667834ZM967.4505710072726 451.88646186955515L987.7440566608914 451.88646186955515Q996.0386162732832 451.88646186955515 1001.5683226815445 449.39004101534016Q1007.0711858548141 446.8667769261336 1010.1581578788433 442.8939781473828Q1013.2451299028727 438.9480226036236 1014.6141348874421 434.3041429500838Q1015.9562966370202 429.6602632965441 1015.9562966370202 425.6069348128186L1015.9562966370202 425.6069348128186Q1015.9562966370202 421.36570368415227 1014.506761947476 416.8023537355872Q1013.0572272579318 412.2658470220137 1009.8628822939363 408.4004211832291Q1006.6685373299407 404.5349953444446 1001.5683226815445 402.03857449022956Q996.4412647981567 399.515310401023 989.0862184104694 399.515310401023L989.0862184104694 399.515310401023L967.4505710072726 399.515310401023L967.4505710072726 451.88646186955515ZM988.5225104756466 463.1069340960269L1010.7487090486577 462.51638292621266L1047.2555086371783 521.2762243227359L1025.6198612339815 521.2762243227359L988.5225104756466 463.1069340960269ZM1064.274119621827 451.5106565796733L1064.274119621827 451.5106565796733Q1064.274119621827 437.01530968423134 1069.7769827950965 424.15740012327444Q1075.2798459683663 411.29949056231754 1085.15815644526 401.34065038044906Q1095.0096236871623 391.4086534335721 1107.8675332481191 385.69104438037Q1120.6985995740845 380.00027856215945 1135.5965949943998 380.00027856215945L1135.5965949943998 380.00027856215945Q1150.2798445347828 380.00027856215945 1163.1377540957396 385.69104438037Q1175.9956636566965 391.4086534335721 1185.9276606035737 401.34065038044906Q1195.886500785442 411.29949056231754 1201.496736898678 424.15740012327444Q1207.1069730119139 437.01530968423134 1207.1069730119139 451.5106565796733L1207.1069730119139 451.5106565796733Q1207.1069730119139 466.3818087649972 1201.496736898678 479.34709126592026Q1195.886500785442 492.28553053185186 1186.0350335435396 502.05646806877945Q1176.1835663016375 511.80056237071545 1163.2182838007143 517.3034255439851Q1150.2798445347828 522.8331319522463 1135.5965949943998 522.8331319522463L1135.5965949943998 522.8331319522463Q1120.6985995740845 522.8331319522463 1107.8675332481191 517.4107984839513Q1095.0096236871623 511.98846501565635 1085.15815644526 502.324900418695Q1075.2798459683663 492.6613358217337 1069.7769827950965 479.7228965558021Q1064.274119621827 466.78445728987055 1064.274119621827 451.5106565796733ZM1083.6012488157496 451.69855922461426L1083.6012488157496 451.69855922461426Q1083.6012488157496 462.70428557115355 1087.654577299475 472.2873204631402Q1091.7079057832004 481.8435121201353 1098.875049525947 489.19855850782255Q1106.0153500337015 496.5267616605182 1115.491011985722 500.6874630842099Q1124.9666739377424 504.8481645079016 1135.9724002842818 504.8481645079016L1135.9724002842818 504.8481645079016Q1146.79022398588 504.8481645079016 1156.2658859379005 500.6874630842099Q1165.7415478899209 496.5267616605182 1172.6939457527346 489.19855850782255Q1179.6463436155486 481.8435121201353 1183.7265153342655 472.2873204631402Q1187.7798438179911 462.70428557115355 1187.7798438179911 451.5106565796733L1187.7798438179911 451.5106565796733Q1187.7798438179911 440.4780869981425 1183.7265153342655 430.7339926962065Q1179.6463436155486 420.9630551592789 1172.5060431077939 413.63485200658323Q1165.365742600039 406.279805618896 1155.8900806480187 402.1191041952043Q1146.4144186959984 397.95840277151257 1135.5965949943998 397.95840277151257L1135.5965949943998 397.95840277151257Q1124.564025412869 397.95840277151257 1115.11520669584 402.2264771351705Q1105.6395447438197 406.46770826383687 1098.4724010010734 413.8227546515241Q1091.3321004933186 421.1509578042198 1087.466674654534 430.9218953411474Q1083.6012488157496 440.69283287807497 1083.6012488157496 451.69855922461426ZM1256.7669577462984 521.2762243227359L1238.5940876570126 521.2762243227359L1238.5940876570126 377.10120918307103L1238.8088335369453 377.10120918307103L1312.0371785939187 481.0650583053801L1304.118424271409 479.5349939108612L1377.1857099184333 377.10120918307103L1377.561515208315 377.10120918307103L1377.561515208315 521.2762243227359L1359.0128398291477 521.2762243227359L1359.0128398291477 419.62089340970095L1360.1670989337847 429.0965553617213L1307.4201421753708 503.6939054032645L1307.0174936504973 503.6939054032645L1253.492083077328 429.0965553617213L1256.7669577462984 420.39934722445616L1256.7669577462984 521.2762243227359ZM1422.2018149992782 521.2762243227359L1403.8410422650516 521.2762243227359L1464.9362451058405 375.7322041985015L1466.0905042104775 375.7322041985015L1526.970961171334 521.2762243227359L1505.523216413078 521.2762243227359L1459.8897169274273 405.12554651425893L1473.2308047182323 396.42833837699374L1422.2018149992782 521.2762243227359ZM1434.2007410405051 484.55467885428277L1439.5962312738086 468.3145216843894L1491.5915774524588 468.3145216843894L1497.792364735509 484.55467885428277L1434.2007410405051 484.55467885428277ZM1537.0103310581771 451.5106565796733L1537.0103310581771 451.5106565796733Q1537.0103310581771 437.01530968423134 1542.513194231447 424.15740012327444Q1548.042900639708 411.29949056231754 1557.8943678816102 401.34065038044906Q1567.7458351235123 391.4086534335721 1580.6037446844693 385.69104438037Q1593.4616542454262 380.00027856215945 1608.3328064307502 380.00027856215945L1608.3328064307502 380.00027856215945Q1623.016055971133 380.00027856215945 1635.8739655320899 385.69104438037Q1648.7318750930467 391.4086534335721 1658.6907152749154 401.34065038044906Q1668.6227122217922 411.29949056231754 1674.2329483350281 424.15740012327444Q1679.8431844482639 437.01530968423134 1679.8431844482639 451.5106565796733L1679.8431844482639 451.5106565796733Q1679.8431844482639 466.3818087649972 1674.2329483350281 479.34709126592026Q1668.6227122217922 492.28553053185186 1658.77124497989 502.05646806877945Q1648.9197777379877 511.80056237071545 1635.9813384720562 517.3034255439851Q1623.016055971133 522.8331319522463 1608.3328064307502 522.8331319522463L1608.3328064307502 522.8331319522463Q1593.4616542454262 522.8331319522463 1580.6037446844693 517.4107984839513Q1567.7458351235123 511.98846501565635 1557.8943678816102 502.324900418695Q1548.042900639708 492.6613358217337 1542.513194231447 479.7228965558021Q1537.0103310581771 466.78445728987055 1537.0103310581771 451.5106565796733ZM1556.3374602520998 451.69855922461426L1556.3374602520998 451.69855922461426Q1556.3374602520998 462.70428557115355 1560.3907887358253 472.2873204631402Q1564.4709604545424 481.8435121201353 1571.6112609622971 489.19855850782255Q1578.751561470052 496.5267616605182 1588.2272234220723 500.6874630842099Q1597.7028853740926 504.8481645079016 1608.708611720632 504.8481645079016L1608.708611720632 504.8481645079016Q1619.5532786572219 504.8481645079016 1629.0020973742508 500.6874630842099Q1638.477759326271 496.5267616605182 1645.430157189085 489.19855850782255Q1652.4093982868903 481.8435121201353 1656.462726770616 472.2873204631402Q1660.5160552543414 462.70428557115355 1660.5160552543414 451.5106565796733L1660.5160552543414 451.5106565796733Q1660.5160552543414 440.4780869981425 1656.462726770616 430.7339926962065Q1652.4093982868903 420.9630551592789 1645.242254544144 413.63485200658323Q1638.1019540363895 406.279805618896 1628.626292084369 402.1191041952043Q1619.1506301323486 397.95840277151257 1608.3328064307502 397.95840277151257L1608.3328064307502 397.95840277151257Q1597.3270800842108 397.95840277151257 1587.8514181321905 402.2264771351705Q1578.37575618017 406.46770826383687 1571.2354556724154 413.8227546515241Q1564.0683119296689 421.1509578042198 1560.2028860908842 430.9218953411474Q1556.3374602520998 440.69283287807497 1556.3374602520998 451.69855922461426ZM1832.903310370135 525.7322013313346L1832.3396024353124 525.7322013313346L1724.295581594286 416.1312728607982L1729.7179150625811 417.50027784536775L1730.0937203524632 521.2762243227359L1711.3571423283547 521.2762243227359L1711.3571423283547 377.2891118280119L1712.323498788051 377.2891118280119L1819.186417289448 487.2658455884303L1814.7572835158408 486.29948912873414L1814.3546349909675 381.53034295667834L1832.903310370135 381.53034295667834L1832.903310370135 525.7322013313346Z " fill="#ffffff" transform="matrix(0.4773847149712555,0,0,0.4773847149712555,0,84.82732953512692)"/></g></svg>